<?xml version="1.0" encoding="UTF-8"?>
<!DOCTYPE svg PUBLIC "-//W3C//DTD SVG 1.1//EN" "http://www.w3.org/Graphics/SVG/1.1/DTD/svg11.dtd">
<!-- Creator: CorelDRAW X7 -->
<svg xmlns="http://www.w3.org/2000/svg" xml:space="preserve" width="84.6666mm" height="84.6666mm" version="1.1" style="shape-rendering:geometricPrecision; text-rendering:geometricPrecision; image-rendering:optimizeQuality; fill-rule:evenodd; clip-rule:evenodd"
viewBox="0 0 8467 8467"
 xmlns:xlink="http://www.w3.org/1999/xlink">
 <defs>
  <style type="text/css">
   <![CDATA[
    .fil0 {fill:none}
    .fil1 {fill:#F3F3F3}
   ]]>
  </style>
 </defs>
 <g id="Layer_x0020_1">
  <metadata id="CorelCorpID_0Corel-Layer"/>
  <rect class="fil0" width="8467" height="8467"/>
  <path class="fil1" d="M4414 6614c143,-113 669,-784 673,-786 18,-8 577,-66 661,-79 195,-31 441,-102 618,-118 94,146 220,859 225,1092 9,344 -75,802 -476,854 -342,44 -750,-216 -974,-355 -102,-63 -627,-472 -705,-573 -2,-3 -21,-34 -22,-35zm-912 -2236c60,350 421,675 864,598 361,-62 694,-418 607,-866 -68,-351 -408,-689 -862,-604 -365,69 -688,412 -609,872zm-1627 2424c0,-464 120,-776 219,-1174 198,28 417,88 623,120 135,22 570,49 656,79 40,14 254,321 332,407 64,71 115,129 173,196l171 200c-334,345 -1390,1217 -1899,869 -189,-129 -275,-388 -275,-697zm1867 -947l990 1c-59,96 -434,543 -500,580 -136,-102 -374,-428 -490,-581zm1878 -815c67,-103 266,-477 311,-527 60,90 143,310 192,423 50,113 139,320 169,443 -106,66 -946,173 -1009,174l337 -513zm-3443 350c21,-124 307,-797 369,-869 40,37 127,218 157,267l480 766c-346,-22 -677,-112 -1006,-164zm4145 -626c-273,-650 -313,-400 -131,-785 104,-220 274,-592 333,-812 180,3 790,275 938,365 786,475 813,936 18,1420 -158,96 -720,345 -930,366l-228 -554zm-2623 -1888c286,-32 765,-20 1073,-2 211,12 150,-20 246,111 208,287 372,564 564,884 49,82 94,161 133,237 77,148 81,106 1,255 -210,392 -324,547 -547,902 -48,75 -100,140 -152,217 -93,138 -52,101 -246,114 -307,19 -764,23 -1079,0 -200,-15 -144,11 -238,-122 -268,-380 -467,-697 -699,-1119 -72,-131 -75,-105 -2,-241 88,-164 175,-315 264,-461 95,-154 182,-294 284,-441 281,-403 168,-308 398,-334zm-1773 2446c-243,-9 -2618,-832 -924,-1790 192,-109 701,-339 942,-368 43,169 148,403 218,557 35,75 241,488 231,530 -8,36 -107,217 -131,265 -99,199 -326,789 -336,806zm266 -2222c91,-52 831,-165 990,-175l-636 1016c-60,-86 -335,-726 -354,-841zm3731 850c-108,-175 -197,-346 -306,-523l-329 -498c171,-15 816,121 990,167 -27,177 -267,693 -355,854zm-2185 -1331c86,-92 391,-513 506,-572 37,54 83,91 131,146l364 428c-136,12 -357,-10 -507,-9 -117,0 -401,23 -494,7zm-1628 233c-103,-353 -210,-705 -228,-1122 -17,-402 109,-815 493,-841 347,-23 749,228 959,368 172,115 610,464 721,605l-344 388c-51,60 -297,388 -338,398 0,0 -746,96 -965,142 -93,19 -207,54 -298,62zm2306 -990c58,-86 259,-245 349,-323 309,-264 908,-696 1348,-648 370,40 490,451 474,853 -16,399 -127,757 -221,1107 -86,-6 -221,-45 -308,-62l-633 -103c-446,-54 -290,22 -501,-239 -56,-69 -107,-137 -166,-202 -63,-71 -116,-128 -174,-196 -54,-64 -138,-136 -168,-187zm-2558 1063c-535,108 -1709,613 -1720,1308 -6,427 373,726 629,883 156,95 325,182 508,256 191,78 378,126 570,194 -36,194 -113,396 -155,603 -121,588 -161,1438 525,1635 572,164 1411,-437 1814,-810 43,-41 159,-156 203,-183 49,30 161,145 202,183 414,381 1235,970 1815,810 687,-190 641,-1038 532,-1613 -22,-113 -45,-210 -71,-313 -21,-79 -78,-250 -81,-315 76,-34 199,-62 278,-89 258,-88 551,-211 778,-356 1416,-904 241,-1839 -1074,-2196 75,-408 252,-764 233,-1310 -17,-472 -207,-853 -593,-953 -418,-107 -907,164 -1167,329 -354,226 -821,668 -852,687 -297,-282 -1282,-1202 -2016,-1014 -374,96 -588,485 -594,951 -5,316 72,700 155,1005 21,75 79,246 81,308z"/>
 </g>
</svg>
